# xmcd CD database file
#
# Track frame offsets:
#	150
#	12324
#	23510
#	34455
#	54722
#	61312
#	68716
#	78499
#	85415
#	93551
#	103612
#	118674
#	127341
#	146955
#	154791
#	175870
#	187897
#
# Disc length: 2603 seconds
#
# Revision: 0
# Processed by: cddbd v1.5.1PL0 Copyright (c) Steve Scherf et al.
# Submitted via: CDex 1.51
#
DISCID=ee0a2911
DTITLE=Alejandro Franov - (en piano)  Melodía
DYEAR=2005
DGENRE=Jazz
TTITLE0=Eigen
TTITLE1=Huemules
TTITLE2=Siglos
TTITLE3=Dentro
TTITLE4=Gatera
TTITLE5=Súlica
TTITLE6=Luz de Lux
TTITLE7=De agua
TTITLE8=Merced
TTITLE9=Muraya
TTITLE10=Opsigno
TTITLE11=Himno
TTITLE12=Bewbea
TTITLE13=Sauce
TTITLE14=Melodía
TTITLE15=Brawnies
TTITLE16=Beijing
EXTD=YEAR: 2005
EXTT0=
EXTT1=
EXTT2=
EXTT3=
EXTT4=
EXTT5=
EXTT6=
EXTT7=
EXTT8=
EXTT9=
EXTT10=
EXTT11=
EXTT12=
EXTT13=
EXTT14=
EXTT15=
EXTT16=
PLAYORDER=
